<!-- icon666.com - MILLIONS vector ICONS FREE --><svg viewBox="0 0 512 512" xmlns="http://www.w3.org/2000/svg"><g id="Ebene_2" data-name="Ebene 2"><path d="m256.44 404.07c-81.65 0-148.08-66.42-148.08-148.07s66.43-148.07 148.08-148.07a147.14 147.14 0 0 1 84.5 26.47 10.66 10.66 0 1 1 -12.19 17.5 126.62 126.62 0 1 0 35 36.64 10.67 10.67 0 0 1 18.05-11.37 147.71 147.71 0 0 1 22.71 78.83c0 81.65-66.43 148.07-148.07 148.07z" fill="#000000" style="fill: rgb(171, 171, 171);"></path><path d="m256 277.33a10.67 10.67 0 0 1 -10.67-10.66v-74.67a10.67 10.67 0 0 1 21.34 0v74.67a10.67 10.67 0 0 1 -10.67 10.66z" fill="#000000" style="fill: rgb(171, 171, 171);"></path><circle cx="256" cy="298.67" r="10.67" fill="#000000" style="fill: rgb(171, 171, 171);"></circle></g></svg>