<?xml version="1.0" encoding="UTF-8"?>
<!DOCTYPE svg PUBLIC "-//W3C//DTD SVG 1.1//EN" "http://www.w3.org/Graphics/SVG/1.1/DTD/svg11.dtd">
<!-- Creator: CorelDRAW -->
<svg xmlns="http://www.w3.org/2000/svg" xml:space="preserve" width="338.667mm" height="98.2116mm" version="1.1" style="shape-rendering:geometricPrecision; text-rendering:geometricPrecision; image-rendering:optimizeQuality; fill-rule:evenodd; clip-rule:evenodd"
viewBox="0 0 37967.13 11010.27"
 xmlns:xlink="http://www.w3.org/1999/xlink"
 xmlns:xodm="http://www.corel.com/coreldraw/odm/2003">
 <defs>
  <style type="text/css">
   <![CDATA[
    .fil1 {fill:#834619}
    .fil0 {fill:#BE914D}
    .fil2 {fill:white;fill-rule:nonzero}
   ]]>
  </style>
 </defs>
 <g id="Слой_x0020_1">
  <metadata id="CorelCorpID_0Corel-Layer"/>
  <rect class="fil0" x="-0.03" y="-0.02" width="37967.13" height="11010.27" rx="883.12" ry="569.5"/>
  <path class="fil1" d="M569.5 0l36828.15 0c313.21,0 569.48,256.26 569.48,569.51l0 9871.26c0,313.25 -256.28,569.51 -569.48,569.51l-36828.15 0c-313.21,0 -569.5,-256.26 -569.5,-569.51l0 -9871.26c0,-313.25 256.29,-569.51 569.5,-569.51zm36638.29 759.35l-36448.42 0 0 9491.57 36448.42 0 0 -9491.57z"/>
  <path class="fil2" d="M5542.24 4095.01c-2.11,-226.73 -29.53,-380.7 -81.2,-460.84 -52.74,-79.09 -183.5,-119.16 -393.35,-119.16l-139.2 0 0 -107.57 2246.2 0 0 107.57 -145.53 0c-194.04,0 -323.74,37.96 -385.96,112.84 -63.27,74.87 -94.91,239.38 -94.91,494.59l0 2765.03c0,258.36 31.64,423.94 95.96,497.75 64.33,72.77 192.98,109.67 384.91,109.67l145.53 0 0 107.57 -2246.2 0 0 -107.57 139.2 0c195.09,0 322.69,-39.01 383.86,-116 60.11,-78.04 90.7,-241.49 90.7,-491.42l0 -2286.27 -1480.59 2328.45c0,201.41 24.25,344.83 73.82,433.42 49.56,87.52 183.49,131.82 400.73,131.82l145.53 0 0 107.57 -2246.2 0 0 -107.57 139.2 0c196.14,0 325.85,-39.01 388.07,-116 62.22,-78.04 92.8,-241.49 92.8,-491.42l0 -2765.03c0,-255.2 -25.31,-419.72 -74.88,-494.59 -49.56,-74.88 -184.54,-112.84 -406,-112.84l-139.2 0 0 -107.57 2246.2 0 0 107.57 -145.53 0c-188.77,0 -315.31,41.12 -378.59,123.37 -64.33,82.25 -95.96,243.61 -95.96,484.05l0 2302.09 1480.59 -2329.51z"/>
  <path id="_1" class="fil2" d="M11719.82 3312.53l0 1455.28 -120.22 0c-90.68,-381.75 -258.36,-674.91 -505.12,-878.44 -246.77,-203.53 -526.22,-304.76 -838.37,-304.76 -260.47,0 -499.85,74.88 -718.15,225.67 -217.24,150.81 -376.48,348 -477.71,591.6 -129.71,312.15 -194.04,659.1 -194.04,1040.84 0,375.43 47.46,718.16 141.31,1027.14 94.91,307.93 242.54,542.04 443.96,699.17 201.42,158.18 462.96,237.28 783.54,237.28 263.63,0 504.07,-58 723.42,-172.95 218.3,-116 449.24,-314.26 691.78,-596.88l0 360.66c-234.1,245.71 -478.77,423.94 -732.92,534.66 -254.15,110.73 -550.47,165.56 -890.03,165.56 -447.13,0 -843.64,-89.64 -1189.54,-268.91 -346.95,-179.27 -614.81,-437.63 -802.51,-772.98 -188.77,-336.41 -282.62,-693.9 -282.62,-1073.54 0,-399.68 104.39,-779.32 313.21,-1137.86 208.8,-358.55 490.36,-636.95 845.75,-835.21 354.33,-197.2 730.8,-296.32 1130.48,-296.32 294.22,0 604.25,64.33 931.17,191.93 189.82,74.88 310.03,111.78 360.66,111.78 66.43,0 123.37,-24.26 171.88,-72.77 48.51,-48.51 79.09,-125.49 93.86,-230.94l120.22 0z"/>
  <path id="_2" class="fil2" d="M16298.69 3407.45l0 1132.59 -107.56 0c-66.43,-261.54 -139.2,-449.24 -219.35,-563.13 -80.15,-114.96 -190.87,-205.64 -331.13,-273.14 -78.04,-36.91 -215.12,-55.89 -411.28,-55.89l-316.36 0 0 3239.59c0,216.19 11.59,351.17 34.8,404.96 23.2,53.78 69.6,101.23 137.09,141.3 68.55,41.13 161.35,61.17 279.46,61.17l137.09 0 0 107.57 -2182.92 0 0 -107.57 138.14 0c120.22,0 217.24,-22.14 291.05,-65.38 52.74,-29.53 94.91,-79.09 125.49,-149.74 22.15,-49.56 33.74,-180.34 33.74,-392.3l0 -3239.59 -303.71 0c-280.5,0 -484.04,60.11 -611.64,179.27 -178.22,166.63 -290,403.89 -337.46,712.88l-120.22 0 0 -1132.59 3764.75 0z"/>
  <path id="_3" class="fil2" d="M19120.69 3356.83c667.53,-24.26 1210.63,169.78 1628.23,583.16 417.6,414.44 626.41,931.18 626.41,1553.36 0,530.44 -156.08,997.6 -467.18,1401.5 -412.33,534.65 -994.44,802.51 -1747.39,802.51 -755.07,0 -1338.23,-255.2 -1750.56,-765.61 -325.86,-403.89 -489.32,-881.6 -489.32,-1435.25 0,-622.19 211.96,-1139.98 635.9,-1554.42 423.94,-415.49 944.88,-609.53 1563.9,-585.27zm36.91 196.14c-384.91,0 -677.02,195.09 -878.44,586.33 -163.45,320.58 -244.65,781.42 -244.65,1382.51 0,713.94 126.55,1242.26 378.59,1583.95 176.11,238.33 421.82,357.49 738.18,357.49 213.02,0 391.24,-51.67 533.6,-153.96 181.39,-131.83 323.76,-342.74 424.99,-631.68 101.24,-288.95 151.86,-666.48 151.86,-1130.48 0,-553.64 -51.68,-968.08 -155.02,-1242.26 -103.35,-275.24 -235.17,-469.27 -395.46,-582.11 -160.29,-112.84 -344.83,-169.79 -553.64,-169.79z"/>
  <path id="_4" class="fil2" d="M23547.71 5704.26l0 1164.23c0,228.83 13.71,372.25 42.19,431.31 27.42,59.06 76.98,106.51 148.69,142.37 70.66,34.8 201.42,52.72 391.24,52.72l0 107.57 -2132.31 0 0 -107.57c194.04,0 325.85,-17.93 394.41,-54.83 69.6,-35.85 118.11,-83.31 145.53,-141.31 28.48,-58 42.17,-201.42 42.17,-430.26l0 -2727.07c0,-228.85 -13.7,-372.26 -42.17,-431.31 -27.42,-59.06 -75.93,-106.51 -146.58,-142.37 -70.66,-34.8 -201.42,-52.72 -393.35,-52.72l0 -107.57 1828.6 0c602.14,0 1034.52,107.57 1296.04,321.64 262.58,215.12 393.35,482.98 393.35,804.62 0,273.14 -84.37,506.19 -254.15,700.22 -168.73,194.05 -401.79,325.86 -699.17,396.51 -199.32,49.56 -537.83,73.82 -1014.48,73.82zm0 -2056.38l0 1815.94c68.54,4.22 120.22,6.32 155.02,6.32 252.04,0 447.13,-74.87 583.16,-224.62 136.04,-149.74 204.59,-381.75 204.59,-696.01 0,-312.14 -68.54,-539.92 -204.59,-684.39 -136.03,-144.48 -340.62,-217.24 -610.58,-217.24l-127.6 0z"/>
  <path id="_5" class="fil2" d="M29143.17 4095.01c-2.11,-226.73 -29.53,-380.7 -81.2,-460.84 -52.74,-79.09 -183.5,-119.16 -393.35,-119.16l-139.2 0 0 -107.57 2246.2 0 0 107.57 -145.53 0c-194.04,0 -323.74,37.96 -385.96,112.84 -63.27,74.87 -94.91,239.38 -94.91,494.59l0 2765.03c0,258.36 31.64,423.94 95.96,497.75 64.33,72.77 192.98,109.67 384.91,109.67l145.53 0 0 107.57 -2246.2 0 0 -107.57 139.2 0c195.09,0 322.69,-39.01 383.86,-116 60.11,-78.04 90.7,-241.49 90.7,-491.42l0 -2286.27 -1480.59 2328.45c0,201.41 24.25,344.83 73.82,433.42 49.56,87.52 183.49,131.82 400.73,131.82l145.53 0 0 107.57 -2246.2 0 0 -107.57 139.2 0c196.14,0 325.85,-39.01 388.07,-116 62.22,-78.04 92.8,-241.49 92.8,-491.42l0 -2765.03c0,-255.2 -25.31,-419.72 -74.88,-494.59 -49.56,-74.88 -184.54,-112.84 -406,-112.84l-139.2 0 0 -107.57 2246.2 0 0 107.57 -145.53 0c-188.77,0 -315.31,41.12 -378.59,123.37 -64.33,82.25 -95.96,243.61 -95.96,484.05l0 2302.09 1480.59 -2329.51z"/>
  <path id="_6" class="fil2" d="M33966.7 5691.6l0 1183.21c0,225.68 -13.71,369.1 -42.19,427.1 -27.42,59.06 -76.98,105.46 -146.58,140.26 -70.65,34.8 -201.42,52.72 -393.35,52.72l0 107.57 2144.97 0 0 -107.57c-194.04,0 -325.86,-17.93 -394.41,-53.78 -69.6,-35.85 -118.11,-83.31 -145.53,-140.26 -28.48,-58 -42.19,-200.36 -42.19,-426.04l0 -2739.73c0,-226.73 13.71,-369.09 42.19,-427.09 27.42,-59.06 76.98,-105.46 146.58,-140.26 70.66,-34.8 201.42,-52.72 393.35,-52.72l0 -107.57 -1948.81 0c-507.24,0 -877.39,34.8 -1112.56,105.45 -235.17,69.61 -427.1,199.32 -575.78,389.14 -148.7,188.77 -222.51,410.22 -222.51,664.37 0,308.98 111.78,565.24 334.29,767.71 142.37,128.65 341.67,224.62 597.93,287.89l-1004.99 1420.48c-132.87,182.43 -227.78,296.32 -283.68,341.67 -84.36,63.27 -183.49,98.07 -295.27,104.41l0 113.89 1320.3 0 1352.99 -1910.85 275.24 0zm0 -2050.06l0 1828.6 -176.11 0c-286.84,0 -501.97,-26.36 -644.34,-78.04 -142.37,-52.72 -254.15,-147.63 -335.35,-283.67 -81.2,-136.04 -122.32,-314.26 -122.32,-533.61 0,-318.48 74.87,-553.64 224.62,-705.49 149.74,-151.86 390.18,-227.79 722.37,-227.79l331.13 0z"/>
 </g>
</svg>
