<?xml version="1.0" encoding="UTF-8"?>
<!DOCTYPE svg PUBLIC "-//W3C//DTD SVG 1.1//EN" "http://www.w3.org/Graphics/SVG/1.1/DTD/svg11.dtd">
<!-- Creator: CorelDRAW -->
<svg xmlns="http://www.w3.org/2000/svg" xml:space="preserve" width="338.667mm" height="98.2116mm" version="1.1" style="shape-rendering:geometricPrecision; text-rendering:geometricPrecision; image-rendering:optimizeQuality; fill-rule:evenodd; clip-rule:evenodd"
viewBox="0 0 14000.28 4060.01"
 xmlns:xlink="http://www.w3.org/1999/xlink"
 xmlns:xodm="http://www.corel.com/coreldraw/odm/2003">
 <defs>
  <style type="text/css">
   <![CDATA[
    .fil1 {fill:#BE914D}
    .fil0 {fill:#EAEAEA}
    .fil2 {fill:#834619;fill-rule:nonzero}
   ]]>
  </style>
 </defs>
 <g id="Слой_x0020_1">
  <metadata id="CorelCorpID_0Corel-Layer"/>
  <rect class="fil0" x="-0.01" y="-0.01" width="14000.28" height="4060.01" rx="325.65" ry="210"/>
  <path class="fil1" d="M210 0l13580.28 0c115.49,0 210,94.49 210,210l0 3640c0,115.51 -94.5,210 -210,210l-13580.28 0c-115.49,0 -210,-94.49 -210,-210l0 -3640c0,-115.51 94.51,-210 210,-210zm13510.27 280.01l-13440.26 0 0 3499.99 13440.26 0 0 -3499.99z"/>
  <path class="fil2" d="M2043.69 1510.03c-0.78,-83.6 -10.89,-140.38 -29.94,-169.93 -19.45,-29.16 -67.66,-43.94 -145.05,-43.94l-51.33 0 0 -39.67 828.28 0 0 39.67 -53.66 0c-71.55,0 -119.38,14 -142.32,41.61 -23.33,27.61 -35,88.27 -35,182.38l0 1019.6c0,95.27 11.67,156.32 35.39,183.54 23.72,26.83 71.16,40.44 141.93,40.44l53.66 0 0 39.67 -828.28 0 0 -39.67 51.33 0c71.94,0 118.99,-14.39 141.55,-42.77 22.17,-28.78 33.44,-89.05 33.44,-181.21l0 -843.06 -545.97 858.61c0,74.27 8.94,127.16 27.22,159.82 18.28,32.27 67.66,48.61 147.77,48.61l53.66 0 0 39.67 -828.28 0 0 -39.67 51.33 0c72.33,0 120.16,-14.39 143.1,-42.77 22.94,-28.78 34.22,-89.05 34.22,-181.21l0 -1019.6c0,-94.11 -9.33,-154.77 -27.61,-182.38 -18.28,-27.61 -68.05,-41.61 -149.71,-41.61l-51.33 0 0 -39.67 828.28 0 0 39.67 -53.66 0c-69.61,0 -116.27,15.16 -139.6,45.49 -23.72,30.33 -35.39,89.83 -35.39,178.49l0 848.89 545.97 -859z"/>
  <path id="_1" class="fil2" d="M4321.65 1221.49l0 536.63 -44.33 0c-33.44,-140.77 -95.27,-248.87 -186.26,-323.92 -91,-75.05 -194.04,-112.38 -309.15,-112.38 -96.05,0 -184.32,27.61 -264.82,83.22 -80.11,55.61 -138.83,128.33 -176.16,218.15 -47.83,115.11 -71.55,243.04 -71.55,383.81 0,138.44 17.5,264.82 52.11,378.76 35,113.55 89.44,199.88 163.71,257.82 74.27,58.33 170.72,87.49 288.93,87.49 97.21,0 185.87,-21.39 266.76,-63.77 80.5,-42.77 165.66,-115.88 255.09,-220.1l0 132.99c-86.32,90.6 -176.54,156.32 -270.26,197.16 -93.72,40.83 -202.98,61.05 -328.2,61.05 -164.88,0 -311.09,-33.05 -438.64,-99.16 -127.94,-66.11 -226.71,-161.38 -295.92,-285.04 -69.61,-124.05 -104.22,-255.87 -104.22,-395.87 0,-147.38 38.5,-287.37 115.49,-419.58 76.99,-132.22 180.82,-234.87 311.87,-307.98 130.66,-72.72 269.48,-109.27 416.86,-109.27 108.49,0 222.82,23.72 343.37,70.77 70,27.61 114.32,41.22 132.99,41.22 24.5,0 45.49,-8.95 63.38,-26.83 17.89,-17.89 29.16,-46.28 34.61,-85.16l44.33 0z"/>
  <path id="_2" class="fil2" d="M6010.1 1256.49l0 417.64 -39.66 0c-24.5,-96.44 -51.33,-165.66 -80.88,-207.65 -29.55,-42.39 -70.38,-75.83 -122.1,-100.72 -28.78,-13.61 -79.33,-20.61 -151.66,-20.61l-116.66 0 0 1194.59c0,79.72 4.27,129.49 12.83,149.33 8.55,19.83 25.66,37.33 50.55,52.1 25.28,15.17 59.5,22.55 103.05,22.55l50.55 0 0 39.67 -804.94 0 0 -39.67 50.94 0c44.33,0 80.11,-8.16 107.33,-24.11 19.45,-10.89 35,-29.16 46.28,-55.22 8.17,-18.28 12.44,-66.5 12.44,-144.66l0 -1194.59 -111.99 0c-103.44,0 -178.49,22.17 -225.54,66.11 -65.72,61.44 -106.94,148.93 -124.44,262.87l-44.33 0 0 -417.64 1388.24 0z"/>
  <path id="_3" class="fil2" d="M7050.7 1237.82c246.15,-8.95 446.42,62.6 600.41,215.04 153.99,152.82 230.99,343.37 230.99,572.8 0,195.6 -57.55,367.86 -172.27,516.8 -152.05,197.15 -366.7,295.92 -644.34,295.92 -278.43,0 -493.47,-94.11 -645.51,-282.32 -120.16,-148.93 -180.43,-325.09 -180.43,-529.24 0,-229.43 78.16,-420.36 234.49,-573.19 156.32,-153.21 348.42,-224.76 576.68,-215.82zm13.61 72.33c-141.93,0 -249.65,71.94 -323.92,216.21 -60.27,118.21 -90.21,288.15 -90.21,509.8 0,263.26 46.66,458.08 139.6,584.08 64.94,87.88 155.54,131.82 272.2,131.82 78.55,0 144.27,-19.05 196.76,-56.77 66.89,-48.61 119.38,-126.38 156.71,-232.93 37.33,-106.55 56,-245.76 56,-416.86 0,-204.15 -19.06,-356.98 -57.16,-458.08 -38.11,-101.49 -86.72,-173.04 -145.82,-214.65 -59.11,-41.61 -127.16,-62.61 -204.15,-62.61z"/>
  <path id="_4" class="fil2" d="M8683.16 2103.43l0 429.31c0,84.38 5.06,137.27 15.56,159.05 10.11,21.78 28.39,39.28 54.83,52.5 26.06,12.83 74.27,19.44 144.27,19.44l0 39.67 -786.28 0 0 -39.67c71.55,0 120.16,-6.61 145.44,-20.22 25.66,-13.22 43.55,-30.72 53.66,-52.11 10.5,-21.39 15.55,-74.27 15.55,-158.66l0 -1005.6c0,-84.39 -5.05,-137.27 -15.55,-159.05 -10.11,-21.78 -28,-39.28 -54.05,-52.5 -26.06,-12.83 -74.27,-19.44 -145.05,-19.44l0 -39.67 674.29 0c222.04,0 381.48,39.67 477.91,118.6 96.83,79.33 145.05,178.1 145.05,296.7 0,100.72 -31.11,186.66 -93.72,258.21 -62.22,71.55 -148.16,120.16 -257.82,146.21 -73.5,18.28 -198.32,27.22 -374.09,27.22zm0 -758.28l0 669.62c25.27,1.55 44.33,2.33 57.16,2.33 92.94,0 164.88,-27.61 215.04,-82.83 50.17,-55.22 75.44,-140.77 75.44,-256.65 0,-115.1 -25.27,-199.09 -75.44,-252.37 -50.16,-53.28 -125.6,-80.11 -225.15,-80.11l-47.05 0z"/>
  <path id="_5" class="fil2" d="M10746.47 1510.03c-0.78,-83.6 -10.89,-140.38 -29.94,-169.93 -19.45,-29.16 -67.66,-43.94 -145.05,-43.94l-51.33 0 0 -39.67 828.28 0 0 39.67 -53.66 0c-71.55,0 -119.38,14 -142.32,41.61 -23.33,27.61 -35,88.27 -35,182.38l0 1019.6c0,95.27 11.67,156.32 35.39,183.54 23.72,26.83 71.16,40.44 141.93,40.44l53.66 0 0 39.67 -828.28 0 0 -39.67 51.33 0c71.94,0 118.99,-14.39 141.55,-42.77 22.17,-28.78 33.44,-89.05 33.44,-181.21l0 -843.06 -545.97 858.61c0,74.27 8.94,127.16 27.22,159.82 18.28,32.27 67.66,48.61 147.77,48.61l53.66 0 0 39.67 -828.28 0 0 -39.67 51.33 0c72.33,0 120.16,-14.39 143.1,-42.77 22.94,-28.78 34.22,-89.05 34.22,-181.21l0 -1019.6c0,-94.11 -9.33,-154.77 -27.61,-182.38 -18.28,-27.61 -68.05,-41.61 -149.71,-41.61l-51.33 0 0 -39.67 828.28 0 0 39.67 -53.66 0c-69.61,0 -116.27,15.16 -139.6,45.49 -23.72,30.33 -35.39,89.83 -35.39,178.49l0 848.89 545.97 -859z"/>
  <path id="_6" class="fil2" d="M12525.13 2098.76l0 436.3c0,83.22 -5.06,136.11 -15.56,157.49 -10.11,21.78 -28.39,38.89 -54.05,51.72 -26.05,12.83 -74.27,19.44 -145.05,19.44l0 39.67 790.95 0 0 -39.67c-71.55,0 -120.16,-6.61 -145.44,-19.83 -25.66,-13.22 -43.55,-30.72 -53.66,-51.72 -10.5,-21.39 -15.56,-73.88 -15.56,-157.1l0 -1010.27c0,-83.6 5.06,-136.1 15.56,-157.49 10.11,-21.78 28.39,-38.89 54.05,-51.72 26.06,-12.83 74.27,-19.44 145.05,-19.44l0 -39.67 -718.62 0c-187.04,0 -323.53,12.83 -410.25,38.88 -86.72,25.67 -157.49,73.5 -212.32,143.49 -54.83,69.61 -82.05,151.27 -82.05,244.99 0,113.94 41.22,208.43 123.27,283.09 52.5,47.44 125.99,82.83 220.48,106.16l-370.59 523.8c-49,67.27 -83.99,109.27 -104.61,125.99 -31.11,23.33 -67.66,36.16 -108.88,38.5l0 42 486.86 0 498.91 -704.62 101.49 0zm0 -755.95l0 674.29 -64.94 0c-105.77,0 -185.1,-9.72 -237.6,-28.78 -52.5,-19.44 -93.72,-54.44 -123.66,-104.6 -29.94,-50.17 -45.11,-115.88 -45.11,-196.77 0,-117.44 27.61,-204.15 82.83,-260.15 55.22,-56 143.88,-84 266.37,-84l122.1 0z"/>
 </g>
</svg>
