<?xml version="1.0" encoding="UTF-8" standalone="no"?>
<svg
   xmlns:dc="http://purl.org/dc/elements/1.1/"
   xmlns:cc="http://creativecommons.org/ns#"
   xmlns:rdf="http://www.w3.org/1999/02/22-rdf-syntax-ns#"
   xmlns:svg="http://www.w3.org/2000/svg"
   xmlns="http://www.w3.org/2000/svg"
   xmlns:sodipodi="http://sodipodi.sourceforge.net/DTD/sodipodi-0.dtd"
   xmlns:inkscape="http://www.inkscape.org/namespaces/inkscape"
   xml:space="preserve"
   width="928"
   height="928"
   viewBox="0 0 928 928"
   version="1.1"
   id="svg894"
   sodipodi:docname="qrcod_8RU.svg"
   inkscape:version="1.0.1 (3bc2e813f5, 2020-09-07)"><metadata
     id="metadata900"><rdf:RDF><cc:Work
         rdf:about=""><dc:format>image/svg+xml</dc:format><dc:type
           rdf:resource="http://purl.org/dc/dcmitype/StillImage" /></cc:Work></rdf:RDF></metadata><defs
     id="defs898" /><sodipodi:namedview
     pagecolor="#ffffff"
     bordercolor="#666666"
     borderopacity="1"
     objecttolerance="10"
     gridtolerance="10"
     guidetolerance="10"
     inkscape:pageopacity="0"
     inkscape:pageshadow="2"
     inkscape:window-width="1280"
     inkscape:window-height="961"
     id="namedview896"
     showgrid="false"
     inkscape:zoom="0.79202586"
     inkscape:cx="464"
     inkscape:cy="464"
     inkscape:window-x="-8"
     inkscape:window-y="-8"
     inkscape:window-maximized="1"
     inkscape:current-layer="svg894" /><g
     fill="#000000"
     id="g890">
<g
   transform="translate(384,64) scale(5.4933333333333)"
   id="g4"><rect
     width="6"
     height="6"
     id="rect2" /></g>
<g
   transform="translate(416,64) scale(5.4933333333333)"
   id="g8"><rect
     width="6"
     height="6"
     id="rect6" /></g>
<g
   transform="translate(576,64) scale(5.4933333333333)"
   id="g12"><rect
     width="6"
     height="6"
     id="rect10" /></g>
<g
   transform="translate(352,96) scale(5.4933333333333)"
   id="g16"><rect
     width="6"
     height="6"
     id="rect14" /></g>
<g
   transform="translate(416,96) scale(5.4933333333333)"
   id="g20"><rect
     width="6"
     height="6"
     id="rect18" /></g>
<g
   transform="translate(448,96) scale(5.4933333333333)"
   id="g24"><rect
     width="6"
     height="6"
     id="rect22" /></g>
<g
   transform="translate(544,96) scale(5.4933333333333)"
   id="g28"><rect
     width="6"
     height="6"
     id="rect26" /></g>
<g
   transform="translate(320,128) scale(5.4933333333333)"
   id="g32"><rect
     width="6"
     height="6"
     id="rect30" /></g>
<g
   transform="translate(352,128) scale(5.4933333333333)"
   id="g36"><rect
     width="6"
     height="6"
     id="rect34" /></g>
<g
   transform="translate(448,128) scale(5.4933333333333)"
   id="g40"><rect
     width="6"
     height="6"
     id="rect38" /></g>
<g
   transform="translate(512,128) scale(5.4933333333333)"
   id="g44"><rect
     width="6"
     height="6"
     id="rect42" /></g>
<g
   transform="translate(544,128) scale(5.4933333333333)"
   id="g48"><rect
     width="6"
     height="6"
     id="rect46" /></g>
<g
   transform="translate(576,128) scale(5.4933333333333)"
   id="g52"><rect
     width="6"
     height="6"
     id="rect50" /></g>
<g
   transform="translate(320,160) scale(5.4933333333333)"
   id="g56"><rect
     width="6"
     height="6"
     id="rect54" /></g>
<g
   transform="translate(352,160) scale(5.4933333333333)"
   id="g60"><rect
     width="6"
     height="6"
     id="rect58" /></g>
<g
   transform="translate(480,160) scale(5.4933333333333)"
   id="g64"><rect
     width="6"
     height="6"
     id="rect62" /></g>
<g
   transform="translate(512,160) scale(5.4933333333333)"
   id="g68"><rect
     width="6"
     height="6"
     id="rect66" /></g>
<g
   transform="translate(320,192) scale(5.4933333333333)"
   id="g72"><rect
     width="6"
     height="6"
     id="rect70" /></g>
<g
   transform="translate(384,192) scale(5.4933333333333)"
   id="g76"><rect
     width="6"
     height="6"
     id="rect74" /></g>
<g
   transform="translate(416,192) scale(5.4933333333333)"
   id="g80"><rect
     width="6"
     height="6"
     id="rect78" /></g>
<g
   transform="translate(448,192) scale(5.4933333333333)"
   id="g84"><rect
     width="6"
     height="6"
     id="rect82" /></g>
<g
   transform="translate(512,192) scale(5.4933333333333)"
   id="g88"><rect
     width="6"
     height="6"
     id="rect86" /></g>
<g
   transform="translate(576,192) scale(5.4933333333333)"
   id="g92"><rect
     width="6"
     height="6"
     id="rect90" /></g>
<g
   transform="translate(320,224) scale(5.4933333333333)"
   id="g96"><rect
     width="6"
     height="6"
     id="rect94" /></g>
<g
   transform="translate(448,224) scale(5.4933333333333)"
   id="g100"><rect
     width="6"
     height="6"
     id="rect98" /></g>
<g
   transform="translate(480,224) scale(5.4933333333333)"
   id="g104"><rect
     width="6"
     height="6"
     id="rect102" /></g>
<g
   transform="translate(544,224) scale(5.4933333333333)"
   id="g108"><rect
     width="6"
     height="6"
     id="rect106" /></g>
<g
   transform="translate(576,224) scale(5.4933333333333)"
   id="g112"><rect
     width="6"
     height="6"
     id="rect110" /></g>
<g
   transform="translate(320,256) scale(5.4933333333333)"
   id="g116"><rect
     width="6"
     height="6"
     id="rect114" /></g>
<g
   transform="translate(384,256) scale(5.4933333333333)"
   id="g120"><rect
     width="6"
     height="6"
     id="rect118" /></g>
<g
   transform="translate(448,256) scale(5.4933333333333)"
   id="g124"><rect
     width="6"
     height="6"
     id="rect122" /></g>
<g
   transform="translate(512,256) scale(5.4933333333333)"
   id="g128"><rect
     width="6"
     height="6"
     id="rect126" /></g>
<g
   transform="translate(576,256) scale(5.4933333333333)"
   id="g132"><rect
     width="6"
     height="6"
     id="rect130" /></g>
<g
   transform="translate(320,288) scale(5.4933333333333)"
   id="g136"><rect
     width="6"
     height="6"
     id="rect134" /></g>
<g
   transform="translate(352,288) scale(5.4933333333333)"
   id="g140"><rect
     width="6"
     height="6"
     id="rect138" /></g>
<g
   transform="translate(384,288) scale(5.4933333333333)"
   id="g144"><rect
     width="6"
     height="6"
     id="rect142" /></g>
<g
   transform="translate(416,288) scale(5.4933333333333)"
   id="g148"><rect
     width="6"
     height="6"
     id="rect146" /></g>
<g
   transform="translate(544,288) scale(5.4933333333333)"
   id="g152"><rect
     width="6"
     height="6"
     id="rect150" /></g>
<g
   transform="translate(576,288) scale(5.4933333333333)"
   id="g156"><rect
     width="6"
     height="6"
     id="rect154" /></g>
<g
   transform="translate(64,320) scale(5.4933333333333)"
   id="g160"><rect
     width="6"
     height="6"
     id="rect158" /></g>
<g
   transform="translate(128,320) scale(5.4933333333333)"
   id="g164"><rect
     width="6"
     height="6"
     id="rect162" /></g>
<g
   transform="translate(160,320) scale(5.4933333333333)"
   id="g168"><rect
     width="6"
     height="6"
     id="rect166" /></g>
<g
   transform="translate(192,320) scale(5.4933333333333)"
   id="g172"><rect
     width="6"
     height="6"
     id="rect170" /></g>
<g
   transform="translate(224,320) scale(5.4933333333333)"
   id="g176"><rect
     width="6"
     height="6"
     id="rect174" /></g>
<g
   transform="translate(256,320) scale(5.4933333333333)"
   id="g180"><rect
     width="6"
     height="6"
     id="rect178" /></g>
<g
   transform="translate(416,320) scale(5.4933333333333)"
   id="g184"><rect
     width="6"
     height="6"
     id="rect182" /></g>
<g
   transform="translate(448,320) scale(5.4933333333333)"
   id="g188"><rect
     width="6"
     height="6"
     id="rect186" /></g>
<g
   transform="translate(480,320) scale(5.4933333333333)"
   id="g192"><rect
     width="6"
     height="6"
     id="rect190" /></g>
<g
   transform="translate(544,320) scale(5.4933333333333)"
   id="g196"><rect
     width="6"
     height="6"
     id="rect194" /></g>
<g
   transform="translate(640,320) scale(5.4933333333333)"
   id="g200"><rect
     width="6"
     height="6"
     id="rect198" /></g>
<g
   transform="translate(672,320) scale(5.4933333333333)"
   id="g204"><rect
     width="6"
     height="6"
     id="rect202" /></g>
<g
   transform="translate(704,320) scale(5.4933333333333)"
   id="g208"><rect
     width="6"
     height="6"
     id="rect206" /></g>
<g
   transform="translate(736,320) scale(5.4933333333333)"
   id="g212"><rect
     width="6"
     height="6"
     id="rect210" /></g>
<g
   transform="translate(768,320) scale(5.4933333333333)"
   id="g216"><rect
     width="6"
     height="6"
     id="rect214" /></g>
<g
   transform="translate(64,352) scale(5.4933333333333)"
   id="g220"><rect
     width="6"
     height="6"
     id="rect218" /></g>
<g
   transform="translate(128,352) scale(5.4933333333333)"
   id="g224"><rect
     width="6"
     height="6"
     id="rect222" /></g>
<g
   transform="translate(160,352) scale(5.4933333333333)"
   id="g228"><rect
     width="6"
     height="6"
     id="rect226" /></g>
<g
   transform="translate(192,352) scale(5.4933333333333)"
   id="g232"><rect
     width="6"
     height="6"
     id="rect230" /></g>
<g
   transform="translate(224,352) scale(5.4933333333333)"
   id="g236"><rect
     width="6"
     height="6"
     id="rect234" /></g>
<g
   transform="translate(576,352) scale(5.4933333333333)"
   id="g240"><rect
     width="6"
     height="6"
     id="rect238" /></g>
<g
   transform="translate(672,352) scale(5.4933333333333)"
   id="g244"><rect
     width="6"
     height="6"
     id="rect242" /></g>
<g
   transform="translate(800,352) scale(5.4933333333333)"
   id="g248"><rect
     width="6"
     height="6"
     id="rect246" /></g>
<g
   transform="translate(64,384) scale(5.4933333333333)"
   id="g252"><rect
     width="6"
     height="6"
     id="rect250" /></g>
<g
   transform="translate(128,384) scale(5.4933333333333)"
   id="g256"><rect
     width="6"
     height="6"
     id="rect254" /></g>
<g
   transform="translate(160,384) scale(5.4933333333333)"
   id="g260"><rect
     width="6"
     height="6"
     id="rect258" /></g>
<g
   transform="translate(256,384) scale(5.4933333333333)"
   id="g264"><rect
     width="6"
     height="6"
     id="rect262" /></g>
<g
   transform="translate(288,384) scale(5.4933333333333)"
   id="g268"><rect
     width="6"
     height="6"
     id="rect266" /></g>
<g
   transform="translate(320,384) scale(5.4933333333333)"
   id="g272"><rect
     width="6"
     height="6"
     id="rect270" /></g>
<g
   transform="translate(608,384) scale(5.4933333333333)"
   id="g276"><rect
     width="6"
     height="6"
     id="rect274" /></g>
<g
   transform="translate(736,384) scale(5.4933333333333)"
   id="g280"><rect
     width="6"
     height="6"
     id="rect278" /></g>
<g
   transform="translate(800,384) scale(5.4933333333333)"
   id="g284"><rect
     width="6"
     height="6"
     id="rect282" /></g>
<g
   transform="translate(832,384) scale(5.4933333333333)"
   id="g288"><rect
     width="6"
     height="6"
     id="rect286" /></g>
<g
   transform="translate(64,416) scale(5.4933333333333)"
   id="g292"><rect
     width="6"
     height="6"
     id="rect290" /></g>
<g
   transform="translate(192,416) scale(5.4933333333333)"
   id="g296"><rect
     width="6"
     height="6"
     id="rect294" /></g>
<g
   transform="translate(288,416) scale(5.4933333333333)"
   id="g300"><rect
     width="6"
     height="6"
     id="rect298" /></g>
<g
   transform="translate(320,416) scale(5.4933333333333)"
   id="g304"><rect
     width="6"
     height="6"
     id="rect302" /></g>
<g
   transform="translate(576,416) scale(5.4933333333333)"
   id="g308"><rect
     width="6"
     height="6"
     id="rect306" /></g>
<g
   transform="translate(608,416) scale(5.4933333333333)"
   id="g312"><rect
     width="6"
     height="6"
     id="rect310" /></g>
<g
   transform="translate(832,416) scale(5.4933333333333)"
   id="g316"><rect
     width="6"
     height="6"
     id="rect314" /></g>
<g
   transform="translate(64,448) scale(5.4933333333333)"
   id="g320"><rect
     width="6"
     height="6"
     id="rect318" /></g>
<g
   transform="translate(96,448) scale(5.4933333333333)"
   id="g324"><rect
     width="6"
     height="6"
     id="rect322" /></g>
<g
   transform="translate(160,448) scale(5.4933333333333)"
   id="g328"><rect
     width="6"
     height="6"
     id="rect326" /></g>
<g
   transform="translate(192,448) scale(5.4933333333333)"
   id="g332"><rect
     width="6"
     height="6"
     id="rect330" /></g>
<g
   transform="translate(256,448) scale(5.4933333333333)"
   id="g336"><rect
     width="6"
     height="6"
     id="rect334" /></g>
<g
   transform="translate(288,448) scale(5.4933333333333)"
   id="g340"><rect
     width="6"
     height="6"
     id="rect338" /></g>
<g
   transform="translate(608,448) scale(5.4933333333333)"
   id="g344"><rect
     width="6"
     height="6"
     id="rect342" /></g>
<g
   transform="translate(640,448) scale(5.4933333333333)"
   id="g348"><rect
     width="6"
     height="6"
     id="rect346" /></g>
<g
   transform="translate(672,448) scale(5.4933333333333)"
   id="g352"><rect
     width="6"
     height="6"
     id="rect350" /></g>
<g
   transform="translate(704,448) scale(5.4933333333333)"
   id="g356"><rect
     width="6"
     height="6"
     id="rect354" /></g>
<g
   transform="translate(768,448) scale(5.4933333333333)"
   id="g360"><rect
     width="6"
     height="6"
     id="rect358" /></g>
<g
   transform="translate(800,448) scale(5.4933333333333)"
   id="g364"><rect
     width="6"
     height="6"
     id="rect362" /></g>
<g
   transform="translate(832,448) scale(5.4933333333333)"
   id="g368"><rect
     width="6"
     height="6"
     id="rect366" /></g>
<g
   transform="translate(64,480) scale(5.4933333333333)"
   id="g372"><rect
     width="6"
     height="6"
     id="rect370" /></g>
<g
   transform="translate(128,480) scale(5.4933333333333)"
   id="g376"><rect
     width="6"
     height="6"
     id="rect374" /></g>
<g
   transform="translate(192,480) scale(5.4933333333333)"
   id="g380"><rect
     width="6"
     height="6"
     id="rect378" /></g>
<g
   transform="translate(224,480) scale(5.4933333333333)"
   id="g384"><rect
     width="6"
     height="6"
     id="rect382" /></g>
<g
   transform="translate(320,480) scale(5.4933333333333)"
   id="g388"><rect
     width="6"
     height="6"
     id="rect386" /></g>
<g
   transform="translate(672,480) scale(5.4933333333333)"
   id="g392"><rect
     width="6"
     height="6"
     id="rect390" /></g>
<g
   transform="translate(736,480) scale(5.4933333333333)"
   id="g396"><rect
     width="6"
     height="6"
     id="rect394" /></g>
<g
   transform="translate(800,480) scale(5.4933333333333)"
   id="g400"><rect
     width="6"
     height="6"
     id="rect398" /></g>
<g
   transform="translate(64,512) scale(5.4933333333333)"
   id="g404"><rect
     width="6"
     height="6"
     id="rect402" /></g>
<g
   transform="translate(128,512) scale(5.4933333333333)"
   id="g408"><rect
     width="6"
     height="6"
     id="rect406" /></g>
<g
   transform="translate(160,512) scale(5.4933333333333)"
   id="g412"><rect
     width="6"
     height="6"
     id="rect410" /></g>
<g
   transform="translate(192,512) scale(5.4933333333333)"
   id="g416"><rect
     width="6"
     height="6"
     id="rect414" /></g>
<g
   transform="translate(256,512) scale(5.4933333333333)"
   id="g420"><rect
     width="6"
     height="6"
     id="rect418" /></g>
<g
   transform="translate(576,512) scale(5.4933333333333)"
   id="g424"><rect
     width="6"
     height="6"
     id="rect422" /></g>
<g
   transform="translate(640,512) scale(5.4933333333333)"
   id="g428"><rect
     width="6"
     height="6"
     id="rect426" /></g>
<g
   transform="translate(672,512) scale(5.4933333333333)"
   id="g432"><rect
     width="6"
     height="6"
     id="rect430" /></g>
<g
   transform="translate(704,512) scale(5.4933333333333)"
   id="g436"><rect
     width="6"
     height="6"
     id="rect434" /></g>
<g
   transform="translate(736,512) scale(5.4933333333333)"
   id="g440"><rect
     width="6"
     height="6"
     id="rect438" /></g>
<g
   transform="translate(800,512) scale(5.4933333333333)"
   id="g444"><rect
     width="6"
     height="6"
     id="rect442" /></g>
<g
   transform="translate(832,512) scale(5.4933333333333)"
   id="g448"><rect
     width="6"
     height="6"
     id="rect446" /></g>
<g
   transform="translate(64,544) scale(5.4933333333333)"
   id="g452"><rect
     width="6"
     height="6"
     id="rect450" /></g>
<g
   transform="translate(192,544) scale(5.4933333333333)"
   id="g456"><rect
     width="6"
     height="6"
     id="rect454" /></g>
<g
   transform="translate(288,544) scale(5.4933333333333)"
   id="g460"><rect
     width="6"
     height="6"
     id="rect458" /></g>
<g
   transform="translate(320,544) scale(5.4933333333333)"
   id="g464"><rect
     width="6"
     height="6"
     id="rect462" /></g>
<g
   transform="translate(672,544) scale(5.4933333333333)"
   id="g468"><rect
     width="6"
     height="6"
     id="rect466" /></g>
<g
   transform="translate(704,544) scale(5.4933333333333)"
   id="g472"><rect
     width="6"
     height="6"
     id="rect470" /></g>
<g
   transform="translate(832,544) scale(5.4933333333333)"
   id="g476"><rect
     width="6"
     height="6"
     id="rect474" /></g>
<g
   transform="translate(64,576) scale(5.4933333333333)"
   id="g480"><rect
     width="6"
     height="6"
     id="rect478" /></g>
<g
   transform="translate(128,576) scale(5.4933333333333)"
   id="g484"><rect
     width="6"
     height="6"
     id="rect482" /></g>
<g
   transform="translate(256,576) scale(5.4933333333333)"
   id="g488"><rect
     width="6"
     height="6"
     id="rect486" /></g>
<g
   transform="translate(320,576) scale(5.4933333333333)"
   id="g492"><rect
     width="6"
     height="6"
     id="rect490" /></g>
<g
   transform="translate(352,576) scale(5.4933333333333)"
   id="g496"><rect
     width="6"
     height="6"
     id="rect494" /></g>
<g
   transform="translate(416,576) scale(5.4933333333333)"
   id="g500"><rect
     width="6"
     height="6"
     id="rect498" /></g>
<g
   transform="translate(480,576) scale(5.4933333333333)"
   id="g504"><rect
     width="6"
     height="6"
     id="rect502" /></g>
<g
   transform="translate(512,576) scale(5.4933333333333)"
   id="g508"><rect
     width="6"
     height="6"
     id="rect506" /></g>
<g
   transform="translate(544,576) scale(5.4933333333333)"
   id="g512"><rect
     width="6"
     height="6"
     id="rect510" /></g>
<g
   transform="translate(576,576) scale(5.4933333333333)"
   id="g516"><rect
     width="6"
     height="6"
     id="rect514" /></g>
<g
   transform="translate(608,576) scale(5.4933333333333)"
   id="g520"><rect
     width="6"
     height="6"
     id="rect518" /></g>
<g
   transform="translate(640,576) scale(5.4933333333333)"
   id="g524"><rect
     width="6"
     height="6"
     id="rect522" /></g>
<g
   transform="translate(672,576) scale(5.4933333333333)"
   id="g528"><rect
     width="6"
     height="6"
     id="rect526" /></g>
<g
   transform="translate(704,576) scale(5.4933333333333)"
   id="g532"><rect
     width="6"
     height="6"
     id="rect530" /></g>
<g
   transform="translate(768,576) scale(5.4933333333333)"
   id="g536"><rect
     width="6"
     height="6"
     id="rect534" /></g>
<g
   transform="translate(320,608) scale(5.4933333333333)"
   id="g540"><rect
     width="6"
     height="6"
     id="rect538" /></g>
<g
   transform="translate(384,608) scale(5.4933333333333)"
   id="g544"><rect
     width="6"
     height="6"
     id="rect542" /></g>
<g
   transform="translate(448,608) scale(5.4933333333333)"
   id="g548"><rect
     width="6"
     height="6"
     id="rect546" /></g>
<g
   transform="translate(512,608) scale(5.4933333333333)"
   id="g552"><rect
     width="6"
     height="6"
     id="rect550" /></g>
<g
   transform="translate(544,608) scale(5.4933333333333)"
   id="g556"><rect
     width="6"
     height="6"
     id="rect554" /></g>
<g
   transform="translate(576,608) scale(5.4933333333333)"
   id="g560"><rect
     width="6"
     height="6"
     id="rect558" /></g>
<g
   transform="translate(704,608) scale(5.4933333333333)"
   id="g564"><rect
     width="6"
     height="6"
     id="rect562" /></g>
<g
   transform="translate(736,608) scale(5.4933333333333)"
   id="g568"><rect
     width="6"
     height="6"
     id="rect566" /></g>
<g
   transform="translate(512,640) scale(5.4933333333333)"
   id="g572"><rect
     width="6"
     height="6"
     id="rect570" /></g>
<g
   transform="translate(576,640) scale(5.4933333333333)"
   id="g576"><rect
     width="6"
     height="6"
     id="rect574" /></g>
<g
   transform="translate(640,640) scale(5.4933333333333)"
   id="g580"><rect
     width="6"
     height="6"
     id="rect578" /></g>
<g
   transform="translate(704,640) scale(5.4933333333333)"
   id="g584"><rect
     width="6"
     height="6"
     id="rect582" /></g>
<g
   transform="translate(768,640) scale(5.4933333333333)"
   id="g588"><rect
     width="6"
     height="6"
     id="rect586" /></g>
<g
   transform="translate(800,640) scale(5.4933333333333)"
   id="g592"><rect
     width="6"
     height="6"
     id="rect590" /></g>
<g
   transform="translate(832,640) scale(5.4933333333333)"
   id="g596"><rect
     width="6"
     height="6"
     id="rect594" /></g>
<g
   transform="translate(320,672) scale(5.4933333333333)"
   id="g600"><rect
     width="6"
     height="6"
     id="rect598" /></g>
<g
   transform="translate(384,672) scale(5.4933333333333)"
   id="g604"><rect
     width="6"
     height="6"
     id="rect602" /></g>
<g
   transform="translate(448,672) scale(5.4933333333333)"
   id="g608"><rect
     width="6"
     height="6"
     id="rect606" /></g>
<g
   transform="translate(512,672) scale(5.4933333333333)"
   id="g612"><rect
     width="6"
     height="6"
     id="rect610" /></g>
<g
   transform="translate(576,672) scale(5.4933333333333)"
   id="g616"><rect
     width="6"
     height="6"
     id="rect614" /></g>
<g
   transform="translate(704,672) scale(5.4933333333333)"
   id="g620"><rect
     width="6"
     height="6"
     id="rect618" /></g>
<g
   transform="translate(736,672) scale(5.4933333333333)"
   id="g624"><rect
     width="6"
     height="6"
     id="rect622" /></g>
<g
   transform="translate(800,672) scale(5.4933333333333)"
   id="g628"><rect
     width="6"
     height="6"
     id="rect626" /></g>
<g
   transform="translate(320,704) scale(5.4933333333333)"
   id="g632"><rect
     width="6"
     height="6"
     id="rect630" /></g>
<g
   transform="translate(352,704) scale(5.4933333333333)"
   id="g636"><rect
     width="6"
     height="6"
     id="rect634" /></g>
<g
   transform="translate(448,704) scale(5.4933333333333)"
   id="g640"><rect
     width="6"
     height="6"
     id="rect638" /></g>
<g
   transform="translate(480,704) scale(5.4933333333333)"
   id="g644"><rect
     width="6"
     height="6"
     id="rect642" /></g>
<g
   transform="translate(544,704) scale(5.4933333333333)"
   id="g648"><rect
     width="6"
     height="6"
     id="rect646" /></g>
<g
   transform="translate(576,704) scale(5.4933333333333)"
   id="g652"><rect
     width="6"
     height="6"
     id="rect650" /></g>
<g
   transform="translate(608,704) scale(5.4933333333333)"
   id="g656"><rect
     width="6"
     height="6"
     id="rect654" /></g>
<g
   transform="translate(640,704) scale(5.4933333333333)"
   id="g660"><rect
     width="6"
     height="6"
     id="rect658" /></g>
<g
   transform="translate(672,704) scale(5.4933333333333)"
   id="g664"><rect
     width="6"
     height="6"
     id="rect662" /></g>
<g
   transform="translate(704,704) scale(5.4933333333333)"
   id="g668"><rect
     width="6"
     height="6"
     id="rect666" /></g>
<g
   transform="translate(768,704) scale(5.4933333333333)"
   id="g672"><rect
     width="6"
     height="6"
     id="rect670" /></g>
<g
   transform="translate(800,704) scale(5.4933333333333)"
   id="g676"><rect
     width="6"
     height="6"
     id="rect674" /></g>
<g
   transform="translate(832,704) scale(5.4933333333333)"
   id="g680"><rect
     width="6"
     height="6"
     id="rect678" /></g>
<g
   transform="translate(320,736) scale(5.4933333333333)"
   id="g684"><rect
     width="6"
     height="6"
     id="rect682" /></g>
<g
   transform="translate(384,736) scale(5.4933333333333)"
   id="g688"><rect
     width="6"
     height="6"
     id="rect686" /></g>
<g
   transform="translate(480,736) scale(5.4933333333333)"
   id="g692"><rect
     width="6"
     height="6"
     id="rect690" /></g>
<g
   transform="translate(544,736) scale(5.4933333333333)"
   id="g696"><rect
     width="6"
     height="6"
     id="rect694" /></g>
<g
   transform="translate(608,736) scale(5.4933333333333)"
   id="g700"><rect
     width="6"
     height="6"
     id="rect698" /></g>
<g
   transform="translate(640,736) scale(5.4933333333333)"
   id="g704"><rect
     width="6"
     height="6"
     id="rect702" /></g>
<g
   transform="translate(704,736) scale(5.4933333333333)"
   id="g708"><rect
     width="6"
     height="6"
     id="rect706" /></g>
<g
   transform="translate(736,736) scale(5.4933333333333)"
   id="g712"><rect
     width="6"
     height="6"
     id="rect710" /></g>
<g
   transform="translate(768,736) scale(5.4933333333333)"
   id="g716"><rect
     width="6"
     height="6"
     id="rect714" /></g>
<g
   transform="translate(800,736) scale(5.4933333333333)"
   id="g720"><rect
     width="6"
     height="6"
     id="rect718" /></g>
<g
   transform="translate(832,736) scale(5.4933333333333)"
   id="g724"><rect
     width="6"
     height="6"
     id="rect722" /></g>
<g
   transform="translate(320,768) scale(5.4933333333333)"
   id="g728"><rect
     width="6"
     height="6"
     id="rect726" /></g>
<g
   transform="translate(384,768) scale(5.4933333333333)"
   id="g732"><rect
     width="6"
     height="6"
     id="rect730" /></g>
<g
   transform="translate(416,768) scale(5.4933333333333)"
   id="g736"><rect
     width="6"
     height="6"
     id="rect734" /></g>
<g
   transform="translate(448,768) scale(5.4933333333333)"
   id="g740"><rect
     width="6"
     height="6"
     id="rect738" /></g>
<g
   transform="translate(480,768) scale(5.4933333333333)"
   id="g744"><rect
     width="6"
     height="6"
     id="rect742" /></g>
<g
   transform="translate(512,768) scale(5.4933333333333)"
   id="g748"><rect
     width="6"
     height="6"
     id="rect746" /></g>
<g
   transform="translate(736,768) scale(5.4933333333333)"
   id="g752"><rect
     width="6"
     height="6"
     id="rect750" /></g>
<g
   transform="translate(768,768) scale(5.4933333333333)"
   id="g756"><rect
     width="6"
     height="6"
     id="rect754" /></g>
<g
   transform="translate(832,768) scale(5.4933333333333)"
   id="g760"><rect
     width="6"
     height="6"
     id="rect758" /></g>
<g
   transform="translate(416,800) scale(5.4933333333333)"
   id="g764"><rect
     width="6"
     height="6"
     id="rect762" /></g>
<g
   transform="translate(512,800) scale(5.4933333333333)"
   id="g768"><rect
     width="6"
     height="6"
     id="rect766" /></g>
<g
   transform="translate(544,800) scale(5.4933333333333)"
   id="g772"><rect
     width="6"
     height="6"
     id="rect770" /></g>
<g
   transform="translate(576,800) scale(5.4933333333333)"
   id="g776"><rect
     width="6"
     height="6"
     id="rect774" /></g>
<g
   transform="translate(608,800) scale(5.4933333333333)"
   id="g780"><rect
     width="6"
     height="6"
     id="rect778" /></g>
<g
   transform="translate(640,800) scale(5.4933333333333)"
   id="g784"><rect
     width="6"
     height="6"
     id="rect782" /></g>
<g
   transform="translate(672,800) scale(5.4933333333333)"
   id="g788"><rect
     width="6"
     height="6"
     id="rect786" /></g>
<g
   transform="translate(704,800) scale(5.4933333333333)"
   id="g792"><rect
     width="6"
     height="6"
     id="rect790" /></g>
<g
   transform="translate(736,800) scale(5.4933333333333)"
   id="g796"><rect
     width="6"
     height="6"
     id="rect794" /></g>
<g
   transform="translate(832,800) scale(5.4933333333333)"
   id="g800"><rect
     width="6"
     height="6"
     id="rect798" /></g>
<g
   transform="translate(320,832) scale(5.4933333333333)"
   id="g804"><rect
     width="6"
     height="6"
     id="rect802" /></g>
<g
   transform="translate(352,832) scale(5.4933333333333)"
   id="g808"><rect
     width="6"
     height="6"
     id="rect806" /></g>
<g
   transform="translate(384,832) scale(5.4933333333333)"
   id="g812"><rect
     width="6"
     height="6"
     id="rect810" /></g>
<g
   transform="translate(416,832) scale(5.4933333333333)"
   id="g816"><rect
     width="6"
     height="6"
     id="rect814" /></g>
<g
   transform="translate(448,832) scale(5.4933333333333)"
   id="g820"><rect
     width="6"
     height="6"
     id="rect818" /></g>
<g
   transform="translate(608,832) scale(5.4933333333333)"
   id="g824"><rect
     width="6"
     height="6"
     id="rect822" /></g>
<g
   transform="translate(640,832) scale(5.4933333333333)"
   id="g828"><rect
     width="6"
     height="6"
     id="rect826" /></g>
<g
   transform="translate(672,832) scale(5.4933333333333)"
   id="g832"><rect
     width="6"
     height="6"
     id="rect830" /></g>
<g
   transform="translate(704,832) scale(5.4933333333333)"
   id="g836"><rect
     width="6"
     height="6"
     id="rect834" /></g>
<g
   transform="translate(736,832) scale(5.4933333333333)"
   id="g840"><rect
     width="6"
     height="6"
     id="rect838" /></g>
<g
   transform="translate(768,832) scale(5.4933333333333)"
   id="g844"><rect
     width="6"
     height="6"
     id="rect842" /></g>
<g
   transform="translate(800,832) scale(5.4933333333333)"
   id="g848"><rect
     width="6"
     height="6"
     id="rect846" /></g>
<g
   transform="translate(832,832) scale(5.4933333333333)"
   id="g852"><rect
     width="6"
     height="6"
     id="rect850" /></g>
<g
   transform="translate(64,64)"
   id="g858"><g
     transform="scale(16)"
     id="g856"><path
       d="M0,0v14h14V0H0z M12,12H2V2h10V12z"
       id="path854" /></g></g>
<g
   transform="translate(640,64)"
   id="g864"><g
     transform="scale(16)"
     id="g862"><path
       d="M0,0v14h14V0H0z M12,12H2V2h10V12z"
       id="path860" /></g></g>
<g
   transform="translate(64,640)"
   id="g870"><g
     transform="scale(16)"
     id="g868"><path
       d="M0,0v14h14V0H0z M12,12H2V2h10V12z"
       id="path866" /></g></g>
<g
   transform="translate(128,128)"
   id="g876"><g
     transform="scale(16)"
     id="g874"><rect
       width="6"
       height="6"
       id="rect872" /></g></g>
<g
   transform="translate(704,128)"
   id="g882"><g
     transform="scale(16)"
     id="g880"><rect
       width="6"
       height="6"
       id="rect878" /></g></g>
<g
   transform="translate(128,704)"
   id="g888"><g
     transform="scale(16)"
     id="g886"><rect
       width="6"
       height="6"
       id="rect884" /></g></g>
</g></svg>
